<?xml version="1.0" standalone="no"?>
<!DOCTYPE svg PUBLIC "-//W3C//DTD SVG 20010904//EN"
 "http://www.w3.org/TR/2001/REC-SVG-20010904/DTD/svg10.dtd">
<svg version="1.0" xmlns="http://www.w3.org/2000/svg"
 width="1121.000000pt" height="1280.000000pt" viewBox="0 0 1121.000000 1280.000000"
 preserveAspectRatio="xMidYMid meet">
<metadata>
Created by potrace 1.15, written by Peter Selinger 2001-2017
</metadata>
<g transform="translate(0.000000,1280.000000) scale(0.100000,-0.100000)"
fill="#ffffff" stroke="#1a1a1a" stroke-width="80" stroke-linejoin="round">
<path d="M5870 12794 c-25 -2 -112 -8 -195 -14 -806 -60 -1663 -312 -2390
-703 -1561 -839 -2670 -2258 -3100 -3967 -71 -281 -129 -630 -162 -965 -24
-252 -24 -849 0 -1095 84 -845 299 -1584 672 -2307 738 -1431 1994 -2506 3530
-3019 549 -183 1035 -275 1620 -305 535 -28 1056 19 1659 148 29 6 29 6 22
-33 -13 -68 -44 -119 -112 -179 -85 -75 -104 -106 -104 -172 0 -60 13 -99 42
-130 36 -38 61 -29 140 48 40 38 136 118 213 177 185 140 314 271 383 388 50
85 55 90 105 108 289 102 620 256 902 421 140 81 421 263 543 351 l53 38 70
-70 c39 -38 116 -120 172 -182 224 -251 306 -371 293 -430 -4 -16 -43 -61 -96
-112 -83 -79 -90 -89 -90 -125 0 -41 0 -41 187 -215 76 -70 99 -120 117 -249
23 -164 82 -217 221 -197 27 5 49 14 52 23 3 8 -6 58 -20 111 -24 88 -27 118
-31 322 -3 196 -7 238 -29 330 -55 230 -159 439 -396 795 -80 121 -147 225
-149 230 -1 6 38 46 87 89 206 179 532 533 714 773 98 131 99 134 37 88 -259
-187 -524 -347 -815 -490 -126 -62 -238 -115 -247 -118 -14 -5 -47 35 -153
188 -74 106 -143 213 -154 237 -32 76 -51 170 -71 369 -27 266 -54 355 -125
417 -54 48 -706 405 -1425 780 -179 93 -353 186 -388 206 -104 62 -209 147
-372 300 -85 81 -233 219 -329 308 -95 89 -191 183 -212 210 -43 55 -69 129
-69 198 0 88 70 306 119 369 l19 25 140 -27 c77 -15 152 -27 166 -27 31 0 46
30 46 90 0 29 8 48 30 74 19 21 28 40 24 50 -4 10 1 25 12 37 18 20 18 22 -11
91 -5 12 4 28 29 53 38 38 38 54 0 86 -10 8 -25 27 -35 44 -18 29 -18 30 3 52
l22 23 -32 -6 -32 -6 16 48 c8 27 18 74 22 104 6 50 10 57 51 84 42 28 43 30
38 72 -7 63 -59 167 -99 198 -19 14 -60 31 -90 37 -42 9 -70 23 -110 56 -116
97 -211 150 -315 177 -100 26 -175 22 -320 -20 -20 -5 -21 -3 -16 34 5 40 5
41 -30 47 -58 11 -72 4 -75 -38 l-3 -37 -43 30 c-86 62 -186 75 -302 39 -59
-18 -77 -30 -134 -88 -200 -201 -282 -442 -220 -642 36 -119 97 -195 282 -350
136 -115 158 -141 158 -183 0 -80 -67 -102 -119 -39 l-30 37 -11 -28 c-29 -76
14 -152 115 -203 104 -53 231 -39 294 32 37 43 45 81 39 203 -6 128 -24 161
-131 251 -111 92 -163 153 -200 231 -26 55 -31 76 -31 145 0 100 22 168 75
228 35 41 121 89 134 75 2 -2 -4 -32 -14 -66 -32 -105 -44 -193 -39 -297 6
-156 49 -231 207 -364 127 -107 135 -121 139 -251 7 -179 -8 -214 -226 -542
-251 -378 -322 -499 -357 -612 l-21 -69 -23 94 c-180 739 -562 1171 -1140
1289 -135 27 -151 23 -78 -20 202 -122 279 -185 346 -285 90 -135 123 -263
123 -480 0 -158 -17 -282 -68 -493 -47 -200 -59 -303 -45 -387 43 -247 261
-366 849 -465 64 -11 119 -23 123 -27 3 -5 37 -145 74 -313 225 -1022 323
-1340 458 -1487 22 -24 35 -43 29 -43 -17 0 -178 58 -337 122 -622 250 -1119
582 -1605 1068 -258 257 -433 471 -622 757 -364 550 -610 1173 -718 1818 -51
304 -64 461 -64 795 0 326 12 476 60 770 207 1280 932 2411 2034 3172 933 645
2150 944 3305 813 993 -114 1923 -516 2730 -1182 141 -116 161 -131 150 -113
-117 198 -381 562 -555 765 -124 145 -477 498 -615 617 -250 213 -609 466
-885 622 -767 434 -1555 683 -2440 771 -144 15 -716 28 -820 19z m985 -534
c403 -26 695 -70 1060 -161 918 -229 1736 -653 2466 -1279 144 -123 368 -332
374 -349 3 -9 -22 12 -57 45 -147 142 -403 342 -625 488 -701 458 -1490 726
-2350 797 -212 17 -762 6 -973 -20 -950 -117 -1776 -449 -2528 -1015 -642
-484 -1169 -1112 -1531 -1826 -302 -595 -473 -1184 -547 -1885 -24 -223 -24
-757 0 -980 68 -641 215 -1190 471 -1755 318 -704 864 -1397 1501 -1906 1066
-852 2448 -1247 3807 -1088 76 9 140 14 142 12 6 -6 -54 -231 -64 -241 -18
-18 -364 -93 -582 -126 -254 -39 -439 -52 -789 -58 -269 -4 -392 -2 -557 11
-644 50 -1236 195 -1828 448 -1645 703 -2853 2111 -3288 3833 -123 485 -170
869 -170 1385 0 339 12 519 54 805 164 1132 682 2213 1463 3054 692 746 1624
1319 2591 1595 618 176 1341 256 1960 216z m42 -8014 c426 -280 895 -486 1738
-763 127 -41 233 -78 238 -82 8 -8 -39 -21 -1647 -445 -137 -36 -252 -66 -255
-66 -8 0 -255 277 -328 366 -105 131 -117 191 -111 536 l5 238 43 87 c31 63
61 106 106 151 34 34 67 62 73 62 6 0 68 -38 138 -84z m1993 -1718 c57 -159
162 -320 303 -465 44 -46 79 -85 76 -87 -28 -27 -646 -172 -702 -164 -23 3
-21 11 117 390 159 441 162 446 206 326z m1520 -171 c0 -2 -10 -12 -22 -23
l-23 -19 19 23 c18 21 26 27 26 19z m-85 -73 c-47 -42 -283 -221 -373 -284
-51 -35 -65 -41 -75 -30 -9 10 -9 14 1 17 24 9 334 220 407 277 80 63 99 72
40 20z m-2159 -274 c-14 -134 -28 -245 -31 -248 -3 -4 -72 -10 -153 -15 -334
-19 -832 20 -1187 92 l-90 19 140 -6 c301 -10 561 42 864 174 69 31 146 63
171 71 25 9 72 36 106 59 105 74 199 126 202 111 2 -8 -8 -123 -22 -257z
m1348 -259 c21 -23 23 -20 -119 -99 -176 -98 -506 -254 -685 -325 -204 -81
-379 -141 -387 -133 -3 3 11 51 33 107 l39 101 190 48 c278 71 667 208 830
293 60 31 77 33 99 8z"/>
<path d="M5320 3814 c-93 -20 -202 -76 -245 -127 -72 -83 -77 -163 -33 -481
26 -194 23 -292 -14 -366 -20 -40 -24 -56 -15 -63 21 -14 130 -1 173 21 126
64 254 266 353 557 42 125 121 421 121 455 0 19 -7 20 -137 19 -76 -1 -167 -7
-203 -15z"/>
</g>
</svg>
